<svg
   width="36"
   height="26"
   viewBox="0 -4 36 26"
   fill="none"
   version="1.1"
   id="svg964"
   xmlns="http://www.w3.org/2000/svg"
   xmlns:svg="http://www.w3.org/2000/svg">
  <g
     clip-path="url(#clip0_503_2543)"
     id="g957"
     transform="matrix(1.2857143,0,0,1.3,0,-4)">
    <rect
       width="28"
       height="20"
       rx="2"
       fill="#ffffff"
       id="rect946"
       x="0"
       y="0" />
    <mask
       id="mask0_503_2543"
       maskUnits="userSpaceOnUse"
       x="0"
       y="0"
       width="28"
       height="20">
      <rect
         width="28"
         height="20"
         rx="2"
         fill="#ffffff"
         id="rect948"
         x="0"
         y="0" />
    </mask>
    <g
       mask="url(#mask0_503_2543)"
       id="g955">
      <rect
         width="28"
         height="20"
         fill="#043cae"
         id="rect951"
         x="0"
         y="0" />
      <path
         fill-rule="evenodd"
         clip-rule="evenodd"
         d="M 13.0572,4.27615 14,4.00001 14.9428,4.27615 14.6666,3.33334 14.9428,2.39053 14,2.66668 13.0572,2.39053 13.3333,3.33334 Z m 0,13.33335 L 14,17.3333 14.9428,17.6095 14.6666,16.6667 14.9428,15.7239 14,16 13.0572,15.7239 13.3333,16.6667 Z M 20.6666,10.6667 19.7238,10.9428 20,10 19.7238,9.0572 20.6666,9.33334 21.6095,9.0572 21.3333,10 21.6095,10.9428 Z M 6.3905,10.9428 7.33331,10.6667 8.27612,10.9428 7.99998,10 8.27612,9.0572 7.33331,9.33334 6.3905,9.0572 6.66665,10 Z m 13.383,-3.60946 -0.9428,0.27614 0.2761,-0.9428 -0.2761,-0.94281 0.9428,0.27614 0.9428,-0.27614 -0.2762,0.94281 0.2762,0.9428 z M 7.28367,14.2762 8.22648,14 9.16929,14.2762 8.89314,13.3333 9.16929,12.3905 8.22648,12.6667 7.28367,12.3905 7.55981,13.3333 Z M 17.3333,4.89317 16.3905,5.16932 16.6666,4.22651 16.3905,3.2837 17.3333,3.55984 18.2761,3.2837 18,4.22651 18.2761,5.16932 Z m -7.60946,11.82313 0.94276,-0.2761 0.9429,0.2761 -0.2762,-0.9428 0.2762,-0.9428 -0.9429,0.2761 -0.94276,-0.2761 0.27614,0.9428 z M 19.7735,14 l -0.9428,0.2762 0.2761,-0.9429 -0.2761,-0.9428 0.9428,0.2762 0.9428,-0.2762 -0.2762,0.9428 0.2762,0.9429 z M 7.28367,7.60948 8.22648,7.33334 9.16929,7.60948 8.89314,6.66668 9.16929,5.72387 8.22648,6.00001 7.28367,5.72387 7.55981,6.66668 Z m 10.04963,8.83072 -0.9428,0.2761 0.2761,-0.9428 -0.2761,-0.9428 0.9428,0.2761 0.9428,-0.2761 L 18,15.7735 18.2761,16.7163 Z M 9.72384,5.16932 10.6666,4.89317 11.6095,5.16932 11.3333,4.22651 11.6095,3.2837 10.6666,3.55984 9.72384,3.2837 9.99998,4.22651 Z"
         fill="#ffd429"
         id="path953" />
    </g>
  </g>
  <defs
     id="defs962">
    <clipPath
       id="clip0_503_2543">
      <rect
         width="28"
         height="20"
         rx="2"
         fill="#ffffff"
         id="rect959"
         x="0"
         y="0" />
    </clipPath>
  </defs>
</svg>
