<svg
   width="36"
   height="26"
   viewBox="0 -4 36 26"
   fill="none"
   version="1.1"
   id="svg473"
   xmlns="http://www.w3.org/2000/svg"
   xmlns:svg="http://www.w3.org/2000/svg">
  <g
     clip-path="url(#clip0_503_3486)"
     id="g448"
     transform="matrix(1.2857143,0,0,1.3,0,-4)">
    <rect
       width="28"
       height="20"
       rx="2"
       fill="#ffffff"
       id="rect433"
       x="0"
       y="0" />
    <mask
       id="mask0_503_3486"
       maskUnits="userSpaceOnUse"
       x="0"
       y="0"
       width="28"
       height="20">
      <rect
         width="28"
         height="20"
         rx="2"
         fill="#ffffff"
         id="rect435"
         x="0"
         y="0" />
    </mask>
    <g
       mask="url(#mask0_503_3486)"
       id="g446">
      <path
         fill-rule="evenodd"
         clip-rule="evenodd"
         d="M 28,0 H 0 v 1.33333 h 28 z m 0,2.66667 H 0 V 4 H 28 Z M 0,5.33333 H 28 V 6.66667 H 0 Z M 28,8 H 0 V 9.33333 H 28 Z M 0,10.6667 H 28 V 12 H 0 Z m 28,2.6666 H 0 v 1.3334 H 28 Z M 0,16 h 28 v 1.3333 H 0 Z m 28,2.6667 H 0 V 20 h 28 z"
         fill="#d02f44"
         id="path438" />
      <rect
         width="12"
         height="9.3333302"
         fill="#46467f"
         id="rect440"
         x="0"
         y="0" />
      <g
         filter="url(#filter0_d_503_3486)"
         id="g444">
        <path
           fill-rule="evenodd"
           clip-rule="evenodd"
           d="m 2.66665,1.99999 c 0,0.36819 -0.29848,0.66667 -0.66667,0.66667 -0.36819,0 -0.66667,-0.29848 -0.66667,-0.66667 0,-0.36818 0.29848,-0.66666 0.66667,-0.66666 0.36819,0 0.66667,0.29848 0.66667,0.66666 z m 2.66666,0 c 0,0.36819 -0.29847,0.66667 -0.66666,0.66667 -0.36819,0 -0.66667,-0.29848 -0.66667,-0.66667 0,-0.36818 0.29848,-0.66666 0.66667,-0.66666 0.36819,0 0.66666,0.29848 0.66666,0.66666 z m 2,0.66667 c 0.36819,0 0.66667,-0.29848 0.66667,-0.66667 0,-0.36818 -0.29848,-0.66666 -0.66667,-0.66666 -0.36819,0 -0.66666,0.29848 -0.66666,0.66666 0,0.36819 0.29847,0.66667 0.66666,0.66667 z M 10.6666,1.99999 c 0,0.36819 -0.2984,0.66667 -0.66662,0.66667 -0.36819,0 -0.66667,-0.29848 -0.66667,-0.66667 0,-0.36818 0.29848,-0.66666 0.66667,-0.66666 0.36822,0 0.66662,0.29848 0.66662,0.66666 z m -7.33329,2 c 0.36819,0 0.66667,-0.29847 0.66667,-0.66666 0,-0.36819 -0.29848,-0.66667 -0.66667,-0.66667 -0.36819,0 -0.66666,0.29848 -0.66666,0.66667 0,0.36819 0.29847,0.66666 0.66666,0.66666 z M 6.66665,3.33333 c 0,0.36819 -0.29848,0.66666 -0.66667,0.66666 -0.36819,0 -0.66667,-0.29847 -0.66667,-0.66666 0,-0.36819 0.29848,-0.66667 0.66667,-0.66667 0.36819,0 0.66667,0.29848 0.66667,0.66667 z m 2,0.66666 c 0.36819,0 0.66666,-0.29847 0.66666,-0.66666 0,-0.36819 -0.29847,-0.66667 -0.66666,-0.66667 -0.36819,0 -0.66667,0.29848 -0.66667,0.66667 0,0.36819 0.29848,0.66666 0.66667,0.66666 z m 1.99995,0.66667 c 0,0.36819 -0.2984,0.66667 -0.66662,0.66667 -0.36819,0 -0.66667,-0.29848 -0.66667,-0.66667 0,-0.36819 0.29848,-0.66667 0.66667,-0.66667 0.36822,0 0.66662,0.29848 0.66662,0.66667 z M 7.33331,5.33333 c 0.36819,0 0.66667,-0.29848 0.66667,-0.66667 0,-0.36819 -0.29848,-0.66667 -0.66667,-0.66667 -0.36819,0 -0.66666,0.29848 -0.66666,0.66667 0,0.36819 0.29847,0.66667 0.66666,0.66667 z m -2,-0.66667 c 0,0.36819 -0.29847,0.66667 -0.66666,0.66667 -0.36819,0 -0.66667,-0.29848 -0.66667,-0.66667 0,-0.36819 0.29848,-0.66667 0.66667,-0.66667 0.36819,0 0.66666,0.29848 0.66666,0.66667 z M 1.99998,5.33333 c 0.36819,0 0.66667,-0.29848 0.66667,-0.66667 0,-0.36819 -0.29848,-0.66667 -0.66667,-0.66667 -0.36819,0 -0.66667,0.29848 -0.66667,0.66667 0,0.36819 0.29848,0.66667 0.66667,0.66667 z m 2,0.66666 c 0,0.3682 -0.29848,0.66667 -0.66667,0.66667 -0.36819,0 -0.66666,-0.29847 -0.66666,-0.66667 0,-0.36819 0.29847,-0.66666 0.66666,-0.66666 0.36819,0 0.66667,0.29847 0.66667,0.66666 z m 2,0.66667 c 0.36819,0 0.66667,-0.29847 0.66667,-0.66667 0,-0.36819 -0.29848,-0.66666 -0.66667,-0.66666 -0.36819,0 -0.66667,0.29847 -0.66667,0.66666 0,0.3682 0.29848,0.66667 0.66667,0.66667 z M 9.33331,5.99999 c 0,0.3682 -0.29847,0.66667 -0.66666,0.66667 -0.36819,0 -0.66667,-0.29847 -0.66667,-0.66667 0,-0.36819 0.29848,-0.66666 0.66667,-0.66666 0.36819,0 0.66666,0.29847 0.66666,0.66666 z M 9.99998,8 c 0.36822,0 0.66662,-0.29848 0.66662,-0.66667 0,-0.36819 -0.2984,-0.66667 -0.66662,-0.66667 -0.36819,0 -0.66667,0.29848 -0.66667,0.66667 C 9.33331,7.70152 9.63179,8 9.99998,8 Z m -2,-0.66667 C 7.99998,7.70152 7.7015,8 7.33331,8 6.96512,8 6.66665,7.70152 6.66665,7.33333 c 0,-0.36819 0.29847,-0.66667 0.66666,-0.66667 0.36819,0 0.66667,0.29848 0.66667,0.66667 z M 4.66665,8 C 5.03484,8 5.33331,7.70152 5.33331,7.33333 5.33331,6.96514 5.03484,6.66666 4.66665,6.66666 4.29846,6.66666 3.99998,6.96514 3.99998,7.33333 3.99998,7.70152 4.29846,8 4.66665,8 Z m -2,-0.66667 C 2.66665,7.70152 2.36817,8 1.99998,8 1.63179,8 1.33331,7.70152 1.33331,7.33333 c 0,-0.36819 0.29848,-0.66667 0.66667,-0.66667 0.36819,0 0.66667,0.29848 0.66667,0.66667 z"
           fill="url(#paint0_linear_503_3486)"
           id="path442"
           style="fill:url(#paint0_linear_503_3486)" />
      </g>
    </g>
  </g>
  <defs
     id="defs471">
    <filter
       id="filter0_d_503_3486"
       x="1.33331"
       y="1.33333"
       width="9.3333101"
       height="7.6666698"
       filterUnits="userSpaceOnUse"
       color-interpolation-filters="sRGB">
      <feFlood
         flood-opacity="0"
         result="BackgroundImageFix"
         id="feFlood450" />
      <feColorMatrix
         in="SourceAlpha"
         type="matrix"
         values="0 0 0 0 0 0 0 0 0 0 0 0 0 0 0 0 0 0 127 0"
         result="hardAlpha"
         id="feColorMatrix452" />
      <feOffset
         dy="1"
         id="feOffset454" />
      <feColorMatrix
         type="matrix"
         values="0 0 0 0 0 0 0 0 0 0 0 0 0 0 0 0 0 0 0.06 0"
         id="feColorMatrix456" />
      <feBlend
         mode="normal"
         in2="BackgroundImageFix"
         result="effect1_dropShadow_503_3486"
         id="feBlend458" />
      <feBlend
         mode="normal"
         in="SourceGraphic"
         in2="effect1_dropShadow_503_3486"
         result="shape"
         id="feBlend460" />
    </filter>
    <linearGradient
       id="paint0_linear_503_3486"
       x1="1.33331"
       y1="1.33333"
       x2="1.33331"
       y2="7.99999"
       gradientUnits="userSpaceOnUse">
      <stop
         stop-color="white"
         id="stop463" />
      <stop
         offset="1"
         stop-color="#F0F0F0"
         id="stop465" />
    </linearGradient>
    <clipPath
       id="clip0_503_3486">
      <rect
         width="28"
         height="20"
         rx="2"
         fill="#ffffff"
         id="rect468"
         x="0"
         y="0" />
    </clipPath>
  </defs>
</svg>
