<svg
   width="36"
   height="26"
   viewBox="0 0 36 26"
   aria-hidden="true"
   role="img"
   class="iconify iconify--twemoji"
   preserveAspectRatio="xMidYMid"
   version="1.1"
   id="svg724"
   xmlns="http://www.w3.org/2000/svg"
   xmlns:svg="http://www.w3.org/2000/svg">
  <defs
     id="defs728" />
  <path
     fill="#eeeeee"
     d="m 36,22 a 4,4 0 0 1 -4,4 H 4 A 4,4 0 0 1 0,22 V 4 A 4,4 0 0 1 4,0 h 28 a 4,4 0 0 1 4,4 z"
     id="path716" />
  <path
     fill="#c60c30"
     d="M 21.441,8.085 A 6,6 0 0 0 13.085,9.559 3.001,3.001 0 0 0 18,13 3.0001912,3.0001912 0 0 1 22.915,16.442 6,6 0 0 0 21.441,8.085 Z"
     id="path718" />
  <path
     fill="#003478"
     d="M 22.178,12.264 A 3,3 0 0 0 18,13 3.001,3.001 0 0 1 13.085,9.558 6,6 0 1 0 22.914,16.44 2.997,2.997 0 0 0 22.178,12.264 Z"
     id="path720" />
  <path
     d="m 24.334,20.572 1.928,-2.298 0.766,0.643 -1.928,2.298 z m 2.57,-3.063 1.928,-2.297 0.766,0.643 -1.928,2.297 z m -1.038,4.351 1.928,-2.297 0.766,0.643 -1.928,2.297 z m 2.572,-3.066 1.93,-2.297 0.766,0.644 -1.93,2.296 z m -1.041,4.352 1.93,-2.297 0.765,0.643 -1.929,2.297 z m 2.571,-3.065 1.927,-2.3 0.767,0.643 -1.927,2.3 z m 0.004,-14.162 0.766,-0.643 1.93,2.299 -0.767,0.643 z M 27.4,2.853 28.166,2.21 30.094,4.509 29.327,5.151 Z m -1.533,1.288 0.766,-0.643 4.5,5.362 -0.766,0.643 z m -1.532,1.284 0.767,-0.643 1.927,2.298 -0.766,0.642 z m 2.57,3.065 0.766,-0.643 1.93,2.297 -0.765,0.643 z M 6.4,15.854 l 0.766,-0.643 4.499,5.363 -0.767,0.643 z m -1.53,1.286 0.765,-0.642 1.929,2.298 -0.767,0.643 z m 2.567,3.066 0.766,-0.643 1.93,2.297 -0.766,0.643 z m -4.101,-1.781 0.766,-0.643 4.5,5.362 -0.767,0.643 z M 3.335,7.573 7.833,2.211 8.6,2.853 4.1,8.216 Z m 1.532,1.287 4.5,-5.363 0.766,0.643 -4.5,5.362 z m 1.533,1.285 4.5,-5.363 0.766,0.643 -4.5,5.363 z"
     fill="#292f33"
     id="path722" />
</svg>
