<svg id="Слой_1" data-name="Слой 1" xmlns="http://www.w3.org/2000/svg" viewBox="0 0 644.9 124.96"><defs><style>.cls-1{fill:#1a1a18;stroke:#1a1a18;stroke-miterlimit:22.93;stroke-width:0.92px;}.cls-1,.cls-2{fill-rule:evenodd;}.cls-2{fill:#e94f18;}.cls-3{fill:#fff;}</style></defs><path class="cls-1" d="M54.78,97.2A5.21,5.21,0,0,1,54,99.67c-2.94,4-5.7,7.47-8.38,10.78s-5.45,6.75-8.38,10.78a4.29,4.29,0,0,1-1.52,1.31,4,4,0,0,1-1.93.47H4.62A4,4,0,0,1,1,120.94a5,5,0,0,1,.21-4.67c5.4-7.42,10.66-14.28,15.75-20.91s10.36-13.5,15.76-20.93a4.33,4.33,0,0,1,3.44-1.75h0a4.3,4.3,0,0,1,3.44,1.78L54,94.67A5.41,5.41,0,0,1,54.78,97.2Z"/><path class="cls-1" d="M121.2,120.71a4.25,4.25,0,0,1-3.76,2.3H86.62a4.08,4.08,0,0,1-1.94-.47,4.4,4.4,0,0,1-1.52-1.31L2,7.18a4.27,4.27,0,0,1-.34-4.39A4.1,4.1,0,0,1,5.44.47H36.16a4.87,4.87,0,0,1,1.93.47A4.72,4.72,0,0,1,39.6,2.26l81.27,114A5.08,5.08,0,0,1,121.2,120.71Z"/><path class="cls-1" d="M284.59,111c-12.58,9.26-24.85,12.08-52.48,12.08H138.47a5.07,5.07,0,0,1-2-.47,5.17,5.17,0,0,1-1.51-1.31L96.81,67.72a5,5,0,0,1-.82-2.5,5.44,5.44,0,0,1,.78-2.45l5.08-7.2a5.19,5.19,0,0,1,1.53-1.35,5.38,5.38,0,0,1,1.93-.49l21.3-.18c3.51.08,15-.64,15.4-13a12,12,0,0,0-3.36-9.19c-2.86-2.91-7.59-4.65-12.62-4.51H108a4.44,4.44,0,0,0-2,.42,3.74,3.74,0,0,0-1.44,1.33L90,48.53a4.59,4.59,0,0,1-3.49,1.8,4.71,4.71,0,0,1-3.44-1.78L68.65,28.27a4.15,4.15,0,0,1-.72-3,7,7,0,0,1,1.39-2.77L84,2.24A5,5,0,0,1,85.55.94,5.17,5.17,0,0,1,87.47.47H128.6c13.28,0,31.05,2.84,40.57,16.27C179.92,31.92,178,47,172.62,56c-7.3,12.21-15.23,15.51-28.64,20.28-.8.28-1.29.79-1.33,1.38a2.43,2.43,0,0,0,.76,1.63l11.33,15.24a3.31,3.31,0,0,0,1.18,1.1,3.84,3.84,0,0,0,1.74.37h71.11c21.44-.11,39.2-2.76,39.13-34.37,0-12.4-2.61-20.69-8.14-26.15-5.73-5.63-14.74-8.31-27.7-8.13h-2.9c-1.73,0-3.34,0-5.18,0l-.23,0c-1.37,0-2.79.07-3.8,1.26s-1,3-1,4.13v.12c0,9,0,17.66,0,26.29s0,17.52,0,26.67a3.86,3.86,0,0,1-1.25,3,4.28,4.28,0,0,1-3,1.23H189.53a4.22,4.22,0,0,1-4.24-4.24V4.7a4.12,4.12,0,0,1,1.24-3,4.35,4.35,0,0,1,3-1.23h43.7c49.11.7,67.61,13.29,70.69,48.07C306.7,79.84,300.73,99.09,284.59,111Z"/><path class="cls-2" d="M303.92,48.53C300.84,13.75,282.34,1.16,233.23.46h-43.7a4.35,4.35,0,0,0-3,1.23,4.12,4.12,0,0,0-1.24,3V85.8A4.22,4.22,0,0,0,189.53,90H214.7a4.28,4.28,0,0,0,3-1.23,3.86,3.86,0,0,0,1.25-3c0-9.15,0-17.91,0-26.67s0-17.28,0-26.29v-.12c0-1.1,0-2.94,1-4.13s2.43-1.24,3.8-1.26l.23,0c1.84,0,3.45,0,5.18,0h2.9c13-.18,22,2.5,27.7,8.13,5.53,5.46,8.12,13.75,8.14,26.15C268,93.2,250.21,95.85,228.77,96H157.66a3.84,3.84,0,0,1-1.74-.37,3.31,3.31,0,0,1-1.18-1.1L143.41,79.25a2.43,2.43,0,0,1-.76-1.63c0-.59.53-1.1,1.33-1.38,13.41-4.77,21.34-8.07,28.64-20.28,5.38-9,7.3-24-3.45-39.22C159.65,3.31,141.88.47,128.6.47H87.47a5.17,5.17,0,0,0-1.92.47A5,5,0,0,0,84,2.24L69.32,22.48a7,7,0,0,0-1.39,2.77,4.15,4.15,0,0,0,.72,3L83.11,48.55a4.71,4.71,0,0,0,3.44,1.78A4.59,4.59,0,0,0,90,48.53l14.45-19.89a3.74,3.74,0,0,1,1.44-1.33,4.44,4.44,0,0,1,2-.42h18c5-.14,9.76,1.6,12.62,4.51A12,12,0,0,1,142,40.59c-.38,12.32-11.89,13-15.4,13l-21.3.18a5.38,5.38,0,0,0-1.93.49,5.19,5.19,0,0,0-1.53,1.35l-5.08,7.2A5.44,5.44,0,0,0,96,65.22a5,5,0,0,0,.82,2.5L135,121.27a5.17,5.17,0,0,0,1.51,1.31,5.07,5.07,0,0,0,2,.47h93.64c27.63,0,39.9-2.82,52.48-12.08C300.73,99.09,306.7,79.84,303.92,48.53Zm-183,67.74L39.6,2.26A4.72,4.72,0,0,0,38.09.94,4.87,4.87,0,0,0,36.16.47H5.44A4.1,4.1,0,0,0,1.65,2.79,4.27,4.27,0,0,0,2,7.18L83.16,121.23a4.4,4.4,0,0,0,1.52,1.31,4.08,4.08,0,0,0,1.94.47h30.82a4.25,4.25,0,0,0,3.76-2.3A5.08,5.08,0,0,0,120.87,116.27ZM54,94.67,39.58,74.46a4.3,4.3,0,0,0-3.44-1.78h0a4.33,4.33,0,0,0-3.44,1.75C27.29,81.86,22,88.72,16.93,95.36S6.58,108.85,1.18,116.27A5,5,0,0,0,1,120.94,4,4,0,0,0,4.62,123H33.76a4,4,0,0,0,1.93-.47,4.29,4.29,0,0,0,1.52-1.31c2.93-4,5.7-7.47,8.38-10.78S51,103.71,54,99.67a5.21,5.21,0,0,0,.81-2.47A5.41,5.41,0,0,0,54,94.67Z"/><path class="cls-3" d="M369.19,125q-24,0-34.93-12.68T323.33,76.77q0-24.39,12.78-36.3t34.64-11.9a66,66,0,0,1,14.44,1.27,51.86,51.86,0,0,1,10.73,3.8v8.79a54.15,54.15,0,0,0-23.42-4.88q-18.33,0-28.48,9.36T333.87,76.77q0,20.1,8.68,29.76t29.17,9.65a59.67,59.67,0,0,0,12.59-1.36,64.46,64.46,0,0,0,11.81-3.71v9a58.8,58.8,0,0,1-12.2,3.61A80.24,80.24,0,0,1,369.19,125Z"/><path class="cls-3" d="M443.34,125a45.72,45.72,0,0,1-16.1-2.73,25.06,25.06,0,0,1-11.71-8.68q-4.39-6-4.39-15.12,0-12.3,7.8-20t26.54-7.71H480V61.94q0-8.79-2.34-14.15a14.27,14.27,0,0,0-8.49-7.71q-6.15-2.34-18.05-2.34a85,85,0,0,0-15.41,1.37,91.12,91.12,0,0,0-14.05,3.71V33.64a72.91,72.91,0,0,1,14.14-3.7,104,104,0,0,1,17.27-1.37q19.13,0,28.2,7.71t9.07,25.46V123h-8.78l-1-11.51a40.16,40.16,0,0,1-15.22,10.15Q456.6,125,443.34,125Zm2.73-9a49,49,0,0,0,19.51-3.61A38.56,38.56,0,0,0,480,101.55V79.3H445.87q-13.65,0-18.93,4.88t-5.26,14.25q0,9.55,6.53,13.56T446.07,116Z"/><path class="cls-3" d="M518.65,123V30.52H528l1.17,12.88a88.42,88.42,0,0,1,16.49-9,104.1,104.1,0,0,1,18.24-5.85v8.78a119.34,119.34,0,0,0-12.19,3.71q-6.54,2.34-12.49,5.17A57.53,57.53,0,0,0,529.39,52v71Z"/><path class="cls-3" d="M610.17,125a110.46,110.46,0,0,1-15.71-1.07,74.47,74.47,0,0,1-12.78-2.83V111.5A81.56,81.56,0,0,0,595,114.72a88.51,88.51,0,0,0,13.85,1.07q13.66,0,19.52-3.61t5.85-12.58q0-6.24-2.83-9.47t-8.88-5.56q-6-2.34-15.41-5.46-7.81-2.73-14.15-5.37a24,24,0,0,1-10-7.41q-3.71-4.78-3.71-13.37,0-12.09,8-18.24t26-6.15a96.71,96.71,0,0,1,13.36.88,66.73,66.73,0,0,1,11.22,2.44v9.56a77.27,77.27,0,0,0-23-3.51q-13.86,0-19.42,3.41t-5.56,11.42q0,5.46,2.44,8.48a18.75,18.75,0,0,0,7.81,5.18q5.36,2.14,14,4.87a140.81,140.81,0,0,1,17.27,6.64,25.53,25.53,0,0,1,10.34,8.29q3.4,5,3.41,13.37,0,13.65-9.27,19.51T610.17,125Z"/></svg>