<svg xmlns="http://www.w3.org/2000/svg" xmlns:xlink="http://www.w3.org/1999/xlink" xmlns:svg="http://www.w3.org/2000/svg"><symbol id="flag-france" viewBox="0 0 36 26" preserveAspectRatio="xMidYMid">
  <path fill="#ed2939" d="m 36,22 a 4,4 0 0 1 -4,4 H 24 V 0 h 8 a 4,4 0 0 1 4,4 z" id="path910"/>
  <path fill="#002495" d="M 4,0 A 4,4 0 0 0 0,4 v 18 a 4,4 0 0 0 4,4 h 8 V 0 Z" id="path912"/>
  <path fill="#eeeeee" d="M 12,0 H 24 V 26 H 12 Z" id="path914"/>
</symbol><symbol id="flag-germany" viewBox="0 0 36 26" preserveAspectRatio="xMidYMid">
  <path fill="#ffcd05" d="m 0,22 a 4,4 0 0 0 4,4 h 28 a 4,4 0 0 0 4,-4 V 18 H 0 Z" id="path267"/>
  <path fill="#ed1f24" d="m 0,9 h 36 v 9 H 0 Z" id="path269"/>
  <path fill="#141414" d="M 32,0 H 4 A 4,4 0 0 0 0,4 V 9 H 36 V 4 A 4,4 0 0 0 32,0 Z" id="path271"/>
</symbol><symbol id="flag-italy" viewBox="0 0 36 26" preserveAspectRatio="xMidYMid">
  <path fill="#ce2b37" d="m 36,22 a 4,4 0 0 1 -4,4 H 24 V 0 h 8 a 4,4 0 0 1 4,4 z" id="path453"/>
  <path fill="#009246" d="M 4,0 A 4,4 0 0 0 0,4 v 18 a 4,4 0 0 0 4,4 h 8 V 0 Z" id="path455"/>
  <path fill="#eeeeee" d="M 12,0 H 24 V 26 H 12 Z" id="path457"/>
</symbol><symbol id="flag-netherlands" viewBox="0 0 36 26">
<path style="fill:#ff4b55;stroke-width:0.0738832" d="M 33.303867,0 H 2.6961328 C 1.2070547,0 0,1.3327743 0,2.976946 V 8.6809279 H 36 V 2.976946 C 36,1.3327743 34.792945,0 33.303867,0 Z" id="path659"/>
<path style="fill:#41479b;stroke-width:0.0738228" d="M 0,23.027945 C 0,24.669337 1.2070547,26 2.6961328,26 H 33.303867 C 34.792875,26 36,24.669415 36,23.027945 V 17.333333 H 0 Z" id="path661"/>
<rect y="8.6665115" style="fill:#f5f5f5;stroke-width:0.0738228" width="36" height="8.6662016" id="rect663" x="0"/>
</symbol></svg>